<?xml version="1.0" encoding="utf-8"?>
<!-- Generator: Adobe Illustrator 23.0.1, SVG Export Plug-In . SVG Version: 6.00 Build 0)  -->
<svg version="1.1" id="Layer_1" xmlns="http://www.w3.org/2000/svg" xmlns:xlink="http://www.w3.org/1999/xlink" x="0px" y="0px"
	 viewBox="0 0 1000 1000" style="enable-background:new 0 0 1000 1000;" xml:space="preserve">
<style type="text/css">
	.st0{fill:#1ABCFE;}
	.st1{fill:#0ACF83;}
	.st2{fill:#FF7262;}
	.st3{fill:#F24E1E;}
	.st4{fill:#A259FF;}
</style>
<g>
	<path d="M407.6,408.3v148.1l19.1,0.1V486h46v-18.6h-46v-40.4h59.8v-18.6L407.6,408.3L407.6,408.3z M520.8,438.4
		c6.8,0,12.5-5.5,12.5-12.5c0-7-5.5-12.5-12.5-12.5c-6.8,0-12.5,5.5-12.5,12.5C508.3,432.9,513.8,438.4,520.8,438.4L520.8,438.4z
		 M511.1,457v99.5h19.1V457H511.1z M600.8,454.1c-25.3,0-42.9,21.4-42.9,46.8s17.6,46.8,42.9,46.8c11.6,0,21.1-4.4,28.1-11.8v13.2
		c0.1,16.4-12.9,30.1-29.5,30.3c-0.1,0-0.1,0-0.3,0c-6.1,0-12.1-2.3-16.9-5.7l-9.6,16.6c22.7,14.7,53,8.1,67.5-14.5
		c5.1-8,7.9-17.2,7.9-26.6v-92.1h-19.1v8.9C621.9,458.6,612.5,454.1,600.8,454.1L600.8,454.1z M577,500.9c0-15.9,12.1-28.2,26-28.2
		c14,0,25.9,12.5,25.9,28.2c0,15.9-12.1,28.1-25.9,28.1C589,529,577,516.7,577,500.9z M716.6,472.7c-11.3,0.1-20.5,9.5-20.4,20.8
		v62.8h-19.1v-99.5h19.1v9.2c5.8-7.7,14.8-12.1,24.6-11.9c13.4,0,23.7,6.5,29.5,16.7c6.7-10.3,18-16.6,30.3-16.7
		c21.7,0,35.2,17.5,35.2,39.1v63.1h-18.9v-62.8c0-11.3-9-20.7-20.4-20.8c-11.3,0.1-20.5,9.5-20.4,20.8v62.8H737v-62.8
		C737,482.2,728,472.9,716.6,472.7L716.6,472.7z M917.4,468.2c-8.7-9.2-20.9-14.3-33.6-14.1c-28.4,0-48.4,24-48.4,52.5
		c0,28.7,20.1,52.5,48.4,52.5c12.7,0,24.7-5.1,33.6-14.1v11.3h19.1v-99.5h-19.1V468.2L917.4,468.2z M854.4,506.6
		c0-18.9,14.5-34,31.6-34c16.9,0.1,31.4,15.1,31.4,34c0,18.9-14.5,33.9-31.6,33.9C869.1,540.7,854.4,525.7,854.4,506.6z"/>
	<path id="b" class="st0" d="M161.5,500.1c0-27.1,22-49,49-49s49,22,49,49s-22,49-49,49S161.5,527.1,161.5,500.1z"/>
	<path id="c" class="st1" d="M63.6,598c0-27.1,22-49,49-49h49v49c0,27.1-22,49-49,49S63.6,625,63.6,598z"/>
	<path id="d" class="st2" d="M161.5,353.1V451h49c27.1,0,49-22,49-49s-22-49-49-49h-49V353.1z"/>
	<path id="e" class="st3" d="M63.6,402.2c0,27.1,22,49,49,49h49v-97.9h-49C85.5,353.1,63.6,375.1,63.6,402.2z"/>
	<path id="e_1_" class="st4" d="M63.6,500.1c0,27.1,22,49,49,49h49v-97.9h-49C85.5,451,63.6,473,63.6,500.1z"/>
</g>
</svg>
