<?xml version="1.0" encoding="UTF-8"?> <svg xmlns="http://www.w3.org/2000/svg" width="61" height="40" viewBox="0 0 61 40" fill="none"><rect width="61" height="40" fill="#1E1E1E"></rect><g id="Software architecture" clip-path="url(#clip0_1_40)"><rect width="1728" height="12725" transform="translate(-773 -5448)" fill="white"></rect><rect id="Rectangle 312" x="-773" y="-298" width="1728" height="1091" fill="#F4F2EA"></rect><g id="Frame 1562"><g id="Frame 1557"><g id="Frame 106"><rect width="839" height="705" transform="translate(-329 -12)" fill="white"></rect><g id="Group 143"><g id="java-seeklogo.com-2 1" clip-path="url(#clip1_1_40)"><g id="Group"><g id="Clip path group"><mask id="mask0_1_40" style="mask-type:luminance" maskUnits="userSpaceOnUse" x="0" y="0" width="61" height="40"><g id="SVGID_00000150785495286499714270000009982772242062153606_"><path id="Vector" d="M60.2175 0.314697H0.298828V39.8784H60.2175V0.314697Z" fill="white"></path></g></mask><g mask="url(#mask0_1_40)"><g id="Group_2"><path id="Vector_2" d="M9.61346 30.9146C9.61346 30.9146 8.1169 31.7945 10.6823 32.0908C13.7883 32.4479 15.3785 32.3974 18.8018 31.7434C18.8018 31.7434 19.7034 32.3127 20.9627 32.805C13.2805 36.1279 3.58107 32.6161 9.61346 30.9146ZM8.67474 26.5837C8.67474 26.5837 6.99481 27.8376 9.5596 28.1067C12.8797 28.4541 15.5016 28.4807 20.0368 27.6014C20.0368 27.6014 20.6613 28.2419 21.65 28.5958C12.3719 31.3319 2.03514 28.808 8.67474 26.5837Z" fill="#5582A1"></path><path id="Vector_3" d="M16.5838 19.2334C18.4772 21.4305 16.0862 23.409 16.0862 23.409C16.0862 23.409 20.8888 20.9084 18.685 17.7745C16.6242 14.8527 15.0443 13.4035 23.5978 8.39917C23.5972 8.39594 10.1711 11.779 16.5838 19.2334Z" fill="#F49734"></path><path id="Vector_4" d="M26.7375 34.1192C26.7375 34.1192 27.8461 35.0424 25.5154 35.7534C21.0834 37.1082 7.07194 37.5158 3.17795 35.8071C1.77821 35.1938 4.40392 34.3411 5.2285 34.1625C6.09027 33.9736 6.58143 34.0073 6.58143 34.0073C5.02524 32.9016 -3.47512 36.1779 2.26296 37.1179C17.9165 39.6799 30.7956 35.9695 26.7375 34.1192ZM10.335 22.0952C10.335 22.0952 3.20744 23.8038 7.80996 24.4236C9.75407 24.6863 13.6282 24.6261 17.2388 24.3195C20.1876 24.0704 23.1506 23.534 23.1506 23.534C23.1506 23.534 22.1119 23.9856 21.3572 24.5013C14.1193 26.4221 0.135461 25.5293 4.16347 23.5645C7.56631 21.9063 10.335 22.0952 10.335 22.0952ZM23.1205 29.307C30.4782 25.4517 27.0748 21.7445 24.7004 22.2433C24.1195 22.365 23.8585 22.4724 23.8585 22.4724C23.8585 22.4724 24.0759 22.1321 24.4862 21.9839C29.1856 20.3192 32.7962 26.8977 22.9698 29.5056C22.973 29.4991 23.0865 29.3982 23.1205 29.307Z" fill="#5582A1"></path><path id="Vector_5" d="M18.6845 0.314697C18.6845 0.314697 22.7593 4.42945 14.82 10.7517C8.45418 15.8272 13.367 18.7185 14.8168 22.0245C11.0991 18.6409 8.37403 15.6622 10.2008 12.8919C12.8861 8.82046 20.3279 6.8459 18.6845 0.314697Z" fill="#F49734"></path><path id="Vector_6" d="M11.0569 39.7608C18.1177 40.2156 28.9655 39.5078 29.2227 36.1345C29.2227 36.1345 28.7283 37.4116 23.3877 38.4261C17.3592 39.5719 9.92451 39.4373 5.51563 38.7023C5.51243 38.7062 6.4178 39.4573 11.0569 39.7608ZM41.5741 33.9814C40.9091 34.5643 40.2045 34.891 39.5735 34.891C38.672 34.891 38.184 34.345 38.184 33.4722C38.184 32.525 38.7085 31.8341 40.7995 31.8341H41.5741V33.9814ZM43.4111 36.0737V29.5968C43.4111 27.9419 42.4762 26.8504 40.2218 26.8504C38.906 26.8504 37.7538 27.1771 36.8151 27.5951L37.0857 28.7409C37.8237 28.4678 38.7791 28.2116 39.7178 28.2116C41.0168 28.2116 41.5747 28.7409 41.5747 29.8323V30.6514H40.9264C37.7705 30.6514 36.3476 31.8845 36.3476 33.7452C36.3476 35.3458 37.2864 36.2561 39.0529 36.2561C40.1884 36.2561 41.0367 35.7845 41.8286 35.0903L41.9722 36.0743H43.4111V36.0737ZM49.5461 36.0737H47.2551L44.4966 27.0154H46.4972L48.2105 32.5826L48.5913 34.2544C49.4563 31.8347 50.0674 29.3781 50.3751 27.0154H52.3225C51.8005 29.9979 50.8624 33.2703 49.5461 36.0737ZM58.3439 33.9814C57.6758 34.5643 56.9711 34.891 56.3402 34.891C55.4387 34.891 54.9507 34.345 54.9507 33.4722C54.9507 32.525 55.4752 31.8341 57.5662 31.8341H58.3407L58.3439 33.9814ZM60.181 36.0737V29.5968C60.181 27.9419 59.2423 26.8504 56.9878 26.8504C55.6721 26.8504 54.516 27.1771 53.5779 27.5951L53.8485 28.7409C54.5865 28.4678 55.5451 28.2116 56.4806 28.2116C57.7797 28.2116 58.3375 28.7409 58.3375 29.8323V30.6514H57.6893C54.5333 30.6514 53.1105 31.8845 53.1105 33.7452C53.1105 35.3458 54.0492 36.2561 55.8157 36.2561C56.9513 36.2561 57.7996 35.7845 58.5947 35.0903L58.7383 36.0743H60.181V36.0737ZM34.3298 37.6141C33.8053 38.386 32.9602 38.9993 32.0317 39.3428L31.1232 38.2643C31.8278 37.8968 32.4325 37.3107 32.7127 36.7614C32.9563 36.2729 33.057 35.6428 33.057 34.1392V23.7935H35.0107V33.9943C35.0107 36.0064 34.8537 36.819 34.3298 37.6141Z" fill="#5582A1"></path></g></g></g></g></g></g></g></g></g></g><defs><clipPath id="clip0_1_40"><rect width="1728" height="12725" fill="white" transform="translate(-773 -5448)"></rect></clipPath><clipPath id="clip1_1_40"><rect width="60.4255" height="40" fill="white"></rect></clipPath></defs></svg> 