<?xml version="1.0" encoding="utf-8"?>
<!-- Generator: Adobe Illustrator 26.5.0, SVG Export Plug-In . SVG Version: 6.00 Build 0)  -->
<svg version="1.1" id="Layer_1" xmlns="http://www.w3.org/2000/svg" xmlns:xlink="http://www.w3.org/1999/xlink" x="0px" y="0px"
	 viewBox="0 0 512 512" style="enable-background:new 0 0 512 512;" xml:space="preserve">
<style type="text/css">
	.st0{fill:#D33833;}
	.st1{fill:#EF3D3A;}
	.st2{fill:#231F20;}
	.st3{fill:#F0D6B7;}
	.st4{fill:#335061;}
	.st5{fill:#6D6B6D;}
	.st6{fill:#DCD9D8;}
	.st7{fill:#F7E4CD;}
	.st8{fill:#49728B;}
	.st9{fill:#FFFFFF;}
	.st10{fill:#81B0C4;}
	.st11{fill:#1D1919;}
</style>
<g id="XMLID_1_">
	<path id="XMLID_3_" class="st0" d="M112.36,253.1c0,31.28-24.83,56.53-55.27,56.53c-30.58,0-55.27-25.39-55.27-56.53
		c0-31.28,24.83-56.67,55.27-56.67C87.67,196.43,112.36,221.82,112.36,253.1"/>
	<path id="XMLID_4_" class="st1" d="M3.93,267.13c0,0-4.07-59.06,50.36-60.74l-3.79-6.31l-29.46,9.96l-8.42,9.68l-7.43,14.17
		L0.98,250.3l1.26,10.94"/>
	<path id="XMLID_7_" class="st2" d="M19.22,214.39c-9.68,9.96-15.71,23.71-15.71,38.86c0,15.15,6.03,28.9,15.71,38.86
		c9.68,9.96,23.15,15.99,37.87,15.99c14.87,0,28.2-6.17,37.87-15.99c9.68-9.96,15.71-23.71,15.71-38.86
		c0-15.15-6.03-28.9-15.71-38.86c-9.68-9.96-23.15-15.99-37.87-15.99C42.22,198.4,28.9,204.57,19.22,214.39z M16.69,294.48
		C6.31,283.96,0,269.37,0,253.24S6.31,222.52,16.69,212c10.38-10.52,24.55-17.11,40.4-17.11c15.71,0,30.02,6.59,40.4,17.11
		c10.38,10.52,16.69,25.11,16.69,41.24s-6.31,30.72-16.69,41.24s-24.55,17.11-40.4,17.11S27.07,305,16.69,294.48"/>
	<polyline id="XMLID_8_" class="st3" points="80.38,253.38 71.96,254.65 60.6,255.91 53.16,256.05 46.01,255.91 40.54,254.22 
		35.63,248.89 31.84,238.23 31,235.85 25.95,234.17 23,229.4 20.9,222.38 23.29,216.21 28.76,214.39 33.1,216.49 35.21,221.12 
		37.73,220.7 38.58,219.58 37.73,214.81 37.59,208.64 38.86,200.22 38.72,195.45 42.64,189.28 49.38,184.37 61.16,179.32 
		74.2,181.28 85.57,189.56 90.9,197.98 94.26,204.01 95.11,219.16 92.58,232.34 87.95,243.84 83.46,250.02 	"/>
	<polyline id="XMLID_9_" class="st4" points="73.22,289.85 43.06,291.12 43.06,296.17 45.59,313.84 44.33,315.38 23.29,308.23 
		21.74,305.71 19.64,281.86 14.73,267.55 13.75,264.04 30.58,252.54 35.91,250.44 40.54,256.05 44.47,259.7 49.1,261.1 51.2,261.8 
		53.72,272.74 55.69,275.13 60.6,273.44 57.09,279.9 75.47,288.59 73.22,289.85 	"/>
	<polyline id="XMLID_10_" class="st5" points="23.29,216.21 28.76,214.39 33.1,216.49 35.21,221.12 37.73,220.7 38.44,218.17 
		37.17,213.26 38.44,201.76 37.31,195.45 41.1,190.96 49.38,184.37 46.99,181.28 35.49,186.89 30.58,190.82 27.91,196.71 
		23.71,202.32 22.44,209.06 23.29,216.21 	"/>
	<path id="XMLID_11_" class="st6" d="M31.84,196.43c0,0,3.23-7.86,15.85-11.64c12.62-3.79,0.7-2.81,0.7-2.81l-13.75,5.33l-5.33,5.33
		l-2.38,4.21L31.84,196.43"/>
	<path id="XMLID_12_" class="st6" d="M25.53,214.81c0,0-4.49-14.73,12.48-16.83l-0.7-2.52l-11.64,2.81L22.3,209.2l0.84,7.15
		L25.53,214.81"/>
	<path id="XMLID_13_" class="st7" d="M32.26,234.45l2.81-2.67c0,0,1.26,0.14,1.4,1.68c0.28,1.54,0.84,14.73,9.96,21.88
		c0.84,0.7-6.73-1.12-6.73-1.12l-6.73-10.52"/>
	<path id="XMLID_14_" class="st7" d="M71.12,230.38c0,0,0.56-6.45,2.24-5.89c1.68,0.56,1.68,2.24,1.68,2.24
		S70.84,229.4,71.12,230.38"/>
	<path id="XMLID_15_" class="st7" d="M88.51,206.95c0,0-3.51,0.7-3.79,3.79c-0.28,3.09,3.79,0.7,4.49,0.42"/>
	<path id="XMLID_16_" class="st7" d="M63.12,207.23c0,0-4.63,0.7-4.63,3.65s5.33,2.81,6.73,1.54"/>
	<path id="XMLID_17_" class="st7" d="M34.37,220.84c0,0-8-4.91-8.84-0.28c-0.84,4.63-2.81,8,1.26,12.91l-2.81-0.84l-2.52-6.59
		l-0.84-6.31l4.91-5.05l5.47,0.42l3.23,2.52L34.37,220.84"/>
	<path id="XMLID_18_" class="st7" d="M38.15,207.65c0,0,3.65-18.52,21.74-22.16c14.87-2.95,22.72,0.7,25.67,4.07
		c0,0-13.33-15.85-25.95-10.94s-21.88,13.75-21.74,19.36C38.29,207.65,38.15,207.65,38.15,207.65"/>
	<path id="XMLID_19_" class="st7" d="M87.11,191.66c0,0-6.17-0.28-6.31,5.33c0,0,0,0.84,0.42,1.68c0,0,4.91-5.47,7.86-2.52"/>
	<path id="XMLID_20_" class="st7" d="M60.32,199.1c0,0-1.12-8.42-8.28-3.51c-4.63,3.23-4.21,7.57-3.37,8.42
		c0.84,0.84,0.56,2.52,1.26,1.4c0.7-1.12,0.42-4.91,2.81-6.03C54.99,198.4,58.92,197.13,60.32,199.1"/>
	<path id="XMLID_21_" class="st8" d="M40.54,256.05l-19.78,8.84c0,0,8.28,32.68,4.07,42.78l-2.95-1.12l-0.28-12.48l-5.47-23.57
		l-2.38-6.59l20.62-13.89L40.54,256.05"/>
	<path id="XMLID_22_" class="st8" d="M42.5,274.14l2.81,3.37v12.62h-3.37c0,0-0.42-8.84-0.42-9.96c0-1.12,0.42-4.91,0.42-4.91"/>
	<polyline id="XMLID_23_" class="st8" points="42.64,292.1 33.1,292.52 35.91,294.48 42.64,295.47 	"/>
	<polyline id="XMLID_24_" class="st4" points="75.05,289.99 82.9,289.85 84.73,309.21 76.73,310.33 75.05,289.99 	"/>
	<path id="XMLID_25_" class="st4" d="M77.15,289.99l11.78-0.7c0,0,4.91-12.2,4.91-12.91c0-0.7,4.21-17.67,4.21-17.67l-9.54-9.96
		l-1.96-1.68l-5.05,5.05v19.64L77.15,289.99"/>
	<path id="XMLID_26_" class="st8" d="M82.48,288.59l-7.43,1.54l1.12,5.89c2.81,1.26,7.43-2.1,7.43-2.1"/>
	<polyline id="XMLID_27_" class="st8" points="82.62,251.7 97.49,262.64 97.91,257.59 86.69,247.21 82.62,251.7 	"/>
	<polyline id="XMLID_28_" class="st9" points="49.94,331.52 45.59,313.84 43.34,300.8 43.06,291.12 62.84,289.99 75.05,289.99 
		73.92,312.16 75.89,329.27 75.61,332.36 59.62,333.62 49.94,331.52 	"/>
	<path id="XMLID_29_" class="st6" d="M72.38,289.85c0,0-1.12,21.88,2.1,37.45c0,0-6.31,4.07-15.57,5.05l17.67-0.7l2.1-1.26
		l-2.52-34.51l-0.7-7.43"/>
	<polyline id="XMLID_30_" class="st9" points="85.15,307.53 93.42,305.28 108.99,304.44 111.24,297.15 107.03,284.8 102.26,284.1 
		95.53,286.21 88.93,289.43 85.57,288.73 82.9,289.85 	"/>
	<path id="XMLID_31_" class="st6" d="M85.01,303.32c0,0,5.47-2.52,6.31-2.38l-2.38-11.64l2.81-1.12c0,0,1.96,10.94,1.96,12.2
		c0,0,11.78,0.7,12.91,0.7c0,0,2.52-4.91,1.96-9.96l2.38,6.73l0.28,3.79l-3.37,5.05l-3.79,0.84l-6.31-0.28l-2.1-2.81l-7.43,1.12
		l-2.38,0.84"/>
	<path id="XMLID_32_" class="st9" d="M76.73,288.31l-4.63-11.78l-4.91-7.01c0,0,1.12-2.95,2.52-2.95c1.54,0,4.91,0,4.91,0l4.63,1.68
		l-0.42,7.86L76.73,288.31"/>
	<path id="XMLID_33_" class="st6" d="M77.57,284.38c0,0-5.89-11.36-5.89-13.05c0,0,1.12-2.52,2.52-1.96
		c1.54,0.7,4.63,2.38,4.63,2.38v-4.07l-7.15-1.54l-4.91,0.7l8.28,19.36l1.68,0.28"/>
	<polyline id="XMLID_34_" class="st9" points="51.76,256.47 46.01,255.91 40.54,254.22 40.54,256.05 43.2,258.99 51.62,262.78 	"/>
	<path id="XMLID_35_" class="st6" d="M42.36,257.17c0,0,6.59,2.81,8.7,2.1l0.14,2.52l-5.89-1.26l-3.65-2.52L42.36,257.17"/>
	<path id="XMLID_36_" class="st0" d="M85.15,267.41c-3.51-0.14-6.87-0.56-9.68-1.26c0.14-1.12-0.14-2.24,0.14-3.09
		c0.84-0.56,2.1-0.56,3.37-0.7c-0.98-0.56-2.52-0.7-3.65-0.42c0-0.84-0.42-1.26-0.56-1.96c1.96-0.7,6.73-5.47,9.4-3.93
		c1.26,0.7,1.82,4.91,1.96,7.01C85.99,264.75,85.85,266.43,85.15,267.41"/>
	<path id="XMLID_37_" class="st0" d="M85.15,267.41v-0.56c-3.51-0.14-6.73-0.56-9.54-1.26l-0.14,0.42l0.56,0.14
		c0-0.28,0-0.56,0-0.84c0-0.56,0-0.98,0-1.4c0-0.28,0-0.56,0.14-0.7l-0.42-0.14l0.28,0.42c0.28-0.14,0.7-0.28,1.26-0.42
		s1.12-0.14,1.82-0.14l1.68-0.14l-1.54-0.7c-0.84-0.42-1.68-0.56-2.67-0.56c-0.42,0-0.84,0-1.26,0.14l0.14,0.56h0.56
		c0-0.42-0.14-0.84-0.28-1.26c-0.14-0.28-0.28-0.56-0.42-0.84l-0.42,0.14l0.14,0.42c0.56-0.14,1.12-0.56,1.68-0.98
		c0.98-0.7,2.1-1.4,3.23-2.1c1.12-0.7,2.24-1.12,3.09-1.12c0.42,0,0.7,0.14,0.98,0.28l0,0c0.14,0,0.14,0.14,0.28,0.28
		c0.14,0.28,0.42,0.7,0.56,1.26c0.56,1.54,0.7,3.79,0.84,5.19c0,0.14,0,0.42,0,0.56c0,0.7,0,1.4-0.14,1.96
		c-0.14,0.56-0.28,1.12-0.56,1.4L85.15,267.41v-0.56V267.41l0.42,0.28c0.42-0.42,0.56-1.12,0.7-1.82c0.14-0.7,0.28-1.4,0.28-2.24
		c0-0.28,0-0.42,0-0.7c0-1.12-0.28-2.67-0.56-4.07c-0.14-0.7-0.42-1.4-0.56-1.96c-0.14-0.28-0.28-0.56-0.42-0.84
		c-0.14-0.28-0.42-0.42-0.56-0.56l0,0c-0.42-0.28-0.98-0.42-1.54-0.42c-0.84,0-1.54,0.28-2.38,0.56c-1.26,0.56-2.38,1.4-3.51,2.1
		c-0.56,0.42-0.98,0.7-1.4,0.98c-0.42,0.28-0.84,0.42-1.12,0.56l-0.42,0.14l0.14,0.42c0.14,0.42,0.28,0.7,0.42,0.98
		c0.14,0.28,0.14,0.56,0.14,0.84v0.56l0.56-0.14c0.28-0.14,0.7-0.14,1.12-0.14c0.84,0,1.68,0.14,2.24,0.56l0.28-0.42v-0.56
		c-0.56,0-1.26,0.14-1.82,0.14c-0.56,0.14-1.26,0.28-1.68,0.56l-0.14,0.14v0.14c-0.14,0.28-0.14,0.7-0.14,0.98c0,0.56,0,0.98,0,1.4
		c0,0.28,0,0.42,0,0.7l-0.14,0.42l0.42,0.14c2.95,0.84,6.17,1.26,9.82,1.4h0.28l0.14-0.14H85.15z"/>
	<path id="XMLID_38_" class="st0" d="M68.03,261.52c0,0.28,0,0.56,0,0.84c-1.12,0.7-2.95,0.7-4.21,1.4
		c1.82,0.14,3.23,0.56,4.49,1.12c0,0.7,0,1.4-0.14,2.1c-2.1,1.4-3.93,3.51-6.31,4.77c-1.12,0.56-5.19,2.24-6.31,1.96
		c-0.7-0.14-0.7-0.98-0.98-1.82c-0.56-1.68-1.96-4.49-2.1-7.01c-0.14-3.23-0.42-8.7,3.09-8.14c2.81,0.56,6.17,1.82,8.28,3.09
		C65.23,260.4,65.93,261.38,68.03,261.52"/>
	<path id="XMLID_39_" class="st0" d="M68.03,261.52h-0.56c0,0.28,0,0.56,0,0.84h0.56l-0.28-0.42c-0.42,0.28-1.12,0.42-1.82,0.7
		c-0.7,0.14-1.54,0.28-2.24,0.7L62,264.18l1.96,0.14c1.68,0.14,3.09,0.42,4.21,1.12l0.28-0.42h-0.56c0,0.7,0,1.4-0.14,2.1h0.56
		l-0.28-0.42c-1.12,0.7-2.1,1.54-3.09,2.52c-0.98,0.84-2.1,1.68-3.23,2.24c-0.42,0.28-1.54,0.7-2.81,1.12
		c-0.56,0.14-1.12,0.42-1.68,0.56c-0.56,0.14-0.98,0.28-1.26,0.28c-0.14,0-0.14,0-0.28,0c-0.14,0-0.14,0-0.14-0.14
		c-0.14-0.14-0.14-0.28-0.28-0.56c-0.14-0.28-0.14-0.56-0.28-0.84l0,0c-0.28-0.84-0.84-1.96-1.26-3.23s-0.7-2.52-0.84-3.65
		c0-0.84-0.14-1.68-0.14-2.67c0-1.26,0.14-2.67,0.42-3.65c0.14-0.42,0.42-0.84,0.7-0.98c0.28-0.28,0.56-0.28,0.98-0.28
		c0.14,0,0.28,0,0.42,0c2.81,0.56,6.03,1.82,8.14,2.95c0.56,0.28,1.12,0.7,1.82,1.12s1.4,0.7,2.52,0.7L68.03,261.52h-0.56H68.03
		v-0.56c-0.98-0.14-1.54-0.28-2.1-0.56c-0.56-0.28-1.12-0.7-1.82-1.12c-2.24-1.26-5.61-2.52-8.56-3.09c-0.28,0-0.42,0-0.7,0
		c-0.7,0-1.26,0.28-1.68,0.56c-0.7,0.56-0.98,1.4-1.12,2.38c-0.14,0.98-0.28,1.96-0.28,3.09c0,0.98,0,1.82,0.14,2.67
		c0,1.4,0.42,2.81,0.84,3.93c0.42,1.26,0.98,2.38,1.26,3.23l0,0c0.14,0.42,0.14,0.84,0.42,1.12c0.14,0.14,0.14,0.42,0.42,0.56
		c0.14,0.14,0.42,0.28,0.7,0.42c0.14,0,0.28,0,0.42,0c0.42,0,0.98-0.14,1.54-0.28c0.84-0.28,1.82-0.56,2.67-0.84
		c0.84-0.28,1.54-0.7,1.96-0.84c1.26-0.7,2.38-1.54,3.37-2.38c0.98-0.84,1.96-1.68,2.95-2.38l0.14-0.14v-0.28c0-0.7,0-1.4,0.14-2.1
		v-0.28l-0.28-0.14c-1.26-0.7-2.81-1.12-4.63-1.12v0.56l0.28,0.42c0.56-0.28,1.26-0.42,1.96-0.56c0.7-0.14,1.54-0.42,2.24-0.84
		l0.28-0.14v-0.28c0-0.28,0-0.56,0-0.84v-0.42h-0.42L68.03,261.52z"/>
	<path id="XMLID_40_" class="st0" d="M70,265.45c-0.28-1.82-0.7-2.24-0.56-3.79C74.2,258.43,75.19,266.99,70,265.45"/>
	<path id="XMLID_41_" class="st0" d="M70,265.45l0.56-0.14c-0.14-0.84-0.28-1.26-0.42-1.82C70,263.06,70,262.64,70,262.22
		c0-0.14,0-0.42,0-0.56h-0.56l0.28,0.42c0.7-0.42,1.26-0.56,1.68-0.56c0.28,0,0.42,0,0.7,0.14c0.28,0.14,0.42,0.42,0.7,0.7
		c0.14,0.28,0.28,0.7,0.28,0.98c0,0.56-0.14,0.98-0.42,1.26c-0.28,0.28-0.7,0.56-1.26,0.56c-0.28,0-0.7,0-0.98-0.14L70,265.45
		l0.56-0.14L70,265.45l-0.14,0.42c0.42,0.14,0.98,0.28,1.4,0.28c0.84,0,1.68-0.42,2.1-0.98c0.42-0.56,0.7-1.26,0.7-1.96
		c0-0.7-0.14-1.4-0.56-1.96c-0.28-0.28-0.42-0.56-0.84-0.7c-0.28-0.14-0.7-0.28-1.12-0.28c-0.7,0-1.4,0.28-2.24,0.84l-0.14,0.14
		v0.28c0,0.28,0,0.42,0,0.7c0,0.56,0.14,1.12,0.14,1.54c0.14,0.42,0.28,0.98,0.42,1.68v0.28l0.28,0.14V265.45z"/>
	<path id="XMLID_42_" class="st1" d="M76.87,266.85c0,0-1.54-2.1-0.42-2.81c1.12-0.7,2.1,0,2.81-1.12c0.7-1.12,0-1.68,0.28-2.95
		c0.28-1.26,1.26-1.54,2.38-1.68c1.12-0.28,4.07-0.7,4.49,0.42l-1.26-3.79l-2.52-0.84l-8,4.63l-0.42,2.38v4.63"/>
	<path id="XMLID_43_" class="st1" d="M54.85,273.86c-0.28-3.23-0.56-6.59-0.84-9.82c-0.42-4.91,1.12-4.07,5.47-4.07
		c0.7,0,4.07,0.84,4.21,1.26c1.12,2.38-1.96,1.82,1.26,3.65c2.81,1.54,7.57-0.84,6.45-4.21c-0.56-0.7-3.23-0.28-4.21-0.7
		c-1.68-0.84-3.23-1.68-4.91-2.52c-2.1-1.12-6.87-2.67-9.12-1.12c-5.61,3.79,0.42,13.47,2.38,17.53"/>
	<path id="XMLID_44_" class="st2" d="M60.32,199.1c-5.75-1.4-8.56,2.38-10.38,6.31c-1.54-0.42-0.98-2.52-0.56-3.51
		c0.98-2.81,5.19-6.59,8.56-6.03C59.48,196.01,61.44,197.27,60.32,199.1"/>
	<path id="XMLID_45_" class="st2" d="M88.37,205.69c0.14,0,0.14,0,0.28,0c1.26,2.67,2.38,5.61,4.07,8
		c-1.12,2.52-8.28,4.77-8.14,0.28c1.54-0.7,4.21-0.14,5.61-0.98C89.35,210.6,88.09,208.78,88.37,205.69"/>
	<path id="XMLID_46_" class="st2" d="M63.26,205.69c1.26,2.24,1.68,4.63,3.37,6.31c0.84,0.7,2.38,1.68,1.54,3.79
		c-0.14,0.56-1.54,1.68-2.24,1.82c-2.81,0.84-9.12,0.14-7.01-3.23c2.24,0.14,5.33,1.4,7.01-0.14
		C64.67,212.28,62.42,208.22,63.26,205.69"/>
	<path id="XMLID_47_" class="st2" d="M87.25,228.7c-4.07,2.67-8.7,5.47-15.43,4.91c-1.4-1.26-1.96-4.07-0.56-5.89
		c0.7,1.26,0.28,3.51,2.24,3.93c3.79,0.7,8.28-2.38,11.08-3.37c1.68-2.95-0.14-3.93-1.68-5.75c-3.09-3.79-7.43-8.56-7.29-14.17
		c1.26-0.98,1.4,1.4,1.54,1.82c1.68,3.79,5.75,8.84,8.84,12.06c0.7,0.84,1.96,1.54,2.1,2.1C88.51,225.75,87.11,227.71,87.25,228.7"
		/>
	<path id="XMLID_48_" class="st2" d="M32.96,225.89c-1.26-0.7-1.54-3.93-3.09-4.07c-2.1-0.14-1.82,4.21-1.82,6.73
		c-1.54-1.4-1.82-5.47-0.7-7.72c-1.26-0.56-1.82,0.7-2.52,1.12C25.81,215.51,34.37,219.02,32.96,225.89"/>
	<path id="XMLID_49_" class="st2" d="M89.92,231.36c-1.96,3.65-4.63,7.72-10.24,7.86c-0.14-1.12-0.14-2.95,0-3.65
		C84.02,235.01,86.69,232.9,89.92,231.36"/>
	<path id="XMLID_50_" class="st2" d="M62.98,233.74c3.65,1.82,10.24,2.1,15.01,1.96c0.28,1.12,0.28,2.38,0.28,3.65
		C71.96,239.78,64.53,238.09,62.98,233.74"/>
	<path id="XMLID_51_" class="st2" d="M62.28,237.25c2.52,6.17,11.08,5.47,18.24,5.33c-0.28,0.84-0.98,1.82-1.82,2.1
		c-2.24,0.98-8.7,1.68-11.92,0c-1.96-1.12-3.37-3.51-4.49-4.91C61.72,239.08,59.06,237.25,62.28,237.25"/>
	<path id="XMLID_52_" class="st10" d="M86.97,271.62c-2.95,5.05-5.75,10.1-9.12,14.59c1.4-4.21,2.1-11.36,2.24-16.83
		C83.18,267.97,85.71,269.66,86.97,271.62"/>
	<path id="XMLID_53_" class="st2" d="M102.68,289.57c-3.23,0.7-5.61,3.79-8.7,3.65C95.67,290.7,98.75,289.71,102.68,289.57"/>
	<path id="XMLID_54_" class="st2" d="M104.08,294.76c-2.67,0.28-5.75,0.7-8.42,0.42C96.93,293.22,101.84,293.92,104.08,294.76"/>
	<path id="XMLID_55_" class="st2" d="M105.07,299.11c-2.95,0-6.73,0-9.54-0.28C97.21,297.01,103.1,298.27,105.07,299.11"/>
	<path id="XMLID_56_" class="st6" d="M81.36,311.18c0.42,3.79,1.96,7.57,1.68,11.64c-1.68,0.56-2.67,0.98-4.77,0.98
		c-0.14-3.51-0.56-8.84-0.42-12.2C78.83,311.74,80.52,310.9,81.36,311.18"/>
	<path id="XMLID_57_" class="st3" d="M76.59,255.91c-1.54,0.98-2.81,2.24-4.21,3.23c-3.23,0.14-4.91-0.28-7.29-2.1
		c0-0.14,0.28-0.14,0.28-0.28C68.73,258.29,73.08,256.19,76.59,255.91"/>
	<path id="XMLID_58_" class="st10" d="M58.63,279.19c0.98-4.07,4.63-6.17,8-8.42c3.51,4.35,5.61,9.96,7.86,15.43
		C69.01,284.52,63.4,281.86,58.63,279.19"/>
	<path id="XMLID_78_" class="st2" d="M77.85,311.74c-0.14,3.37,0.28,8.7,0.42,12.2c2.24,0,3.23-0.42,4.77-0.98
		c0.14-4.07-1.26-7.86-1.68-11.64C80.52,310.9,78.83,311.74,77.85,311.74z M43.34,292.8c1.4,13.47,3.51,24.69,7.43,36.61
		c8.56,2.67,18.94,2.81,26.65,0.42c-1.4-6.73-0.84-14.87-1.54-22.02c-0.56-5.33-0.28-10.8-1.12-16.27
		C65.37,289.57,52.32,291.12,43.34,292.8z M76.87,291.54c-0.14,5.75,0.28,11.5,0.7,17.25c2.24-0.28,3.65-0.56,5.75-0.98
		c-0.7-5.61-0.56-11.78-1.96-16.69C79.82,291.12,78.41,291.12,76.87,291.54z M88.09,290.7c-0.98-0.28-2.24,0-3.23,0
		c0.42,4.63,1.68,9.82,1.96,14.87c1.54,0,2.38-0.7,3.79-0.98C90.62,300.23,90.06,294.2,88.09,290.7L88.09,290.7z M105.07,306.27
		c3.23-0.84,5.33-4.77,4.49-8.98c-0.56-2.81-1.68-8-2.95-9.82c-0.84-1.26-3.23-3.09-5.05-1.82c-3.09,1.96-8.42,2.52-10.66,4.91
		c1.12,3.79,1.4,8.84,1.96,13.61c3.79,0.28,8.56-1.12,11.78,0.28c-2.24,0.7-5.05,0.7-7.01,1.82
		C98.89,306.97,102.68,306.83,105.07,306.27L105.07,306.27z M74.49,286.21c-2.24-5.47-4.35-11.08-7.86-15.43
		c-3.37,2.24-7.01,4.35-8,8.42C63.4,281.86,69.01,284.52,74.49,286.21z M80.1,269.37c-0.28,5.47-0.84,12.62-2.24,16.83
		c3.51-4.35,6.31-9.54,9.12-14.59C85.71,269.66,83.18,267.97,80.1,269.37z M73.64,266.99c-1.26-0.14-2.38,1.54-4.07,0.84
		c-0.42,0.42-0.7,0.84-1.12,1.26c3.79,4.49,5.47,10.94,8.42,16.27c1.54-5.05,1.4-10.66,1.68-16.27
		C76.31,269.23,75.19,267.27,73.64,266.99z M69.44,261.52c-0.14,1.54,0.28,2.1,0.56,3.79C75.19,266.99,74.2,258.43,69.44,261.52z
		 M63.82,259.7c-2.24-1.26-5.47-2.52-8.28-3.09c-3.51-0.7-3.23,4.77-3.09,8.14c0.14,2.52,1.4,5.33,2.1,7.01
		c0.28,0.84,0.28,1.68,0.98,1.82c1.26,0.28,5.19-1.26,6.31-1.96c2.38-1.26,4.35-3.37,6.31-4.77c0-0.7,0-1.4,0.14-2.1
		c-1.26-0.56-2.67-0.98-4.49-1.12c1.26-0.56,3.09-0.56,4.21-1.4c0-0.28,0-0.56,0-0.84C65.93,261.38,65.23,260.4,63.82,259.7z
		 M42.78,255.91c-1.82,1.82,5.05,4.35,7.29,4.49c0-1.12,0.7-2.24,0.56-3.09C48.11,256.89,44.61,257.17,42.78,255.91z M65.37,256.75
		c0,0.14-0.28,0.14-0.28,0.28c2.38,1.82,4.07,2.24,7.29,2.1c1.4-0.98,2.67-2.24,4.21-3.23C73.08,256.19,68.73,258.29,65.37,256.75z
		 M85.99,263.06c-0.14-2.1-0.7-6.31-1.96-7.01c-2.67-1.54-7.43,3.09-9.4,3.93c0.28,0.56,0.56,1.12,0.56,1.96
		c1.12-0.28,2.67-0.14,3.65,0.42c-1.12,0.14-2.52,0.14-3.37,0.7c-0.28,0.84,0.14,1.96-0.14,3.09c2.81,0.84,6.03,1.26,9.68,1.26
		C85.85,266.43,85.99,264.75,85.99,263.06z M39.84,257.73c-0.56-0.42-4.49-5.47-5.05-5.19c-7.01,2.81-13.61,7.57-19.5,12.06
		c5.61,11.92,7.86,26.65,8.28,40.82c6.45,2.95,12.06,7.29,20.76,7.72c-0.98-7.15-1.96-13.47-2.52-20.2c-2.24-0.98-5.33,0-7.29-0.28
		c0-2.52,3.09-1.12,3.37-2.67c0.14-1.26-1.68-1.4-1.12-3.37c1.54,0.56,2.38,1.82,4.21,2.38c1.54-3.37,0-9.4,0.14-12.34
		c0-0.56,0.28-2.95,1.4-2.52c1.12,0.42,0,6.45,0,9.12c0.14,2.52-0.28,4.91,0.7,6.45c8.42-1.12,16.97-1.82,25.95-2.1
		c-1.96-0.84-4.35-1.68-7.01-3.09c-1.4-0.84-5.89-2.38-6.31-3.79c-0.7-2.1,1.68-3.23,2.1-5.05c-4.21,2.24-5.05-2.24-6.03-5.47
		c-0.84-2.95-1.4-5.05-1.68-6.73C46.85,261.66,42.92,259.98,39.84,257.73L39.84,257.73z M82.2,253.1
		c5.89-2.81,6.87,10.66,4.63,14.87c0.42,1.26,1.54,1.82,2.1,2.95c-3.23,5.89-6.87,11.36-10.24,17.11c2.52-1.54,6.03-0.28,8.98-1.4
		c1.12-0.42,1.82-2.81,2.67-4.77c2.24-5.33,4.49-12.06,5.61-17.25c0.28-1.12,0.84-3.65,0.7-4.77c-0.28-1.82-2.81-3.23-4.07-4.35
		c-2.38-2.1-3.79-3.93-6.31-6.03C85.29,250.86,83.04,251.84,82.2,253.1L82.2,253.1z M26.37,201.2c-2.81,3.09-2.24,8.84-1.82,12.91
		c5.05-3.23,11.78,0.28,11.64,5.61c2.38,0,0.84-2.95,0.42-4.91c-1.4-6.17,2.38-12.91,0.14-18.52
		C32.54,196.57,29.04,198.4,26.37,201.2L26.37,201.2z M46.29,183.39c-6.31,1.82-14.45,6.31-16.97,12.06
		c1.96-0.28,3.37-1.26,5.33-1.4c0.7,0,1.68,0.28,2.52,0.14c1.68-0.42,3.23-4.21,4.49-5.75c1.26-1.4,2.81-1.96,3.79-3.23
		c0.7-0.28,1.68-0.28,1.68-1.26C46.99,183.53,46.71,183.39,46.29,183.39z M79.11,185.07c-6.59-3.65-17.67-6.45-24.55-2.95
		c-5.61,2.81-13.19,7.43-15.85,13.33c2.38,5.61-0.7,10.8-0.98,16.55c-0.14,3.09,1.4,5.75,1.54,9.12c-0.84,1.4-3.37,1.54-5.05,1.4
		c-0.56-2.95-1.68-6.31-4.63-6.59c-4.35-0.42-7.43,3.09-7.57,6.73c-0.28,4.35,3.37,11.64,8.42,11.08c1.96-0.14,2.38-2.1,4.63-2.1
		c1.12,2.24-1.82,3.09-2.1,4.63c-0.14,0.42,0.28,2.1,0.42,2.95c0.98,3.79,2.95,8.7,5.05,11.64c2.52,3.65,7.57,4.21,13.05,4.63
		c0.98-2.1,4.49-1.96,6.87-1.4c-2.81-1.12-5.33-3.79-7.57-6.17c-2.52-2.67-4.91-5.61-5.05-9.26c4.63,6.45,8.56,12.2,16.97,15.01
		c6.45,2.1,13.89-0.98,18.94-4.49c2.1-1.4,3.23-3.79,4.77-5.89c5.47-7.86,8-19.08,7.43-29.88c-0.28-4.49-0.28-8.98-1.68-11.92
		c-1.54-3.09-6.87-5.89-9.96-3.09c-0.56-3.09,2.52-4.91,6.31-3.79C85.71,191.38,82.9,187.17,79.11,185.07L79.11,185.07z
		 M91.32,286.07c5.05-2.52,14.73-6.87,17.81,0c1.12,2.52,2.52,6.73,3.23,9.4c0.84,3.65-0.98,11.36-4.77,12.62
		c-3.37,1.12-7.29,0.98-11.22,0.28c-0.42-0.42-0.98-1.12-1.4-1.82c-2.81-0.14-5.61,0.14-7.86,1.4c0.28,2.1-1.26,2.52-2.52,2.95
		c-0.98,3.93,1.96,9.12,1.26,12.76c-0.56,2.52-3.65,2.95-6.03,3.51c-0.14,1.4,0.14,2.67,0.28,3.79c-0.56,1.96-2.95,3.09-5.19,3.37
		c-7.43,0.84-18.8,1.26-25.95-1.26c-1.96-4.91-3.51-10.8-5.19-16.41c-7.01,0.7-12.62-2.95-17.96-5.47
		c-1.82-0.84-4.35-1.26-5.05-2.81c-0.7-1.4-0.42-4.21-0.56-6.73c-0.42-6.59-0.84-12.91-2.52-19.64c-0.84-2.95-2.1-5.61-3.09-8.56
		c-0.84-2.67-2.38-6.03-2.81-8.7c-0.56-3.93,3.23-4.21,5.61-5.89c3.65-2.67,6.59-4.21,10.66-6.59c1.12-0.7,4.77-2.52,5.19-3.37
		c0.84-1.68-1.4-3.93-1.96-5.33c-0.98-2.1-1.4-3.79-1.54-5.75c-3.37-0.56-5.89-2.52-7.43-4.77c-2.52-3.79-4.35-10.66-2.1-15.85
		c0.14-0.42,0.98-1.26,1.12-1.82c0.28-1.26-0.42-2.95-0.56-4.21c-0.28-6.87,1.12-12.76,5.75-14.73c1.82-7.43,8.56-9.96,14.87-13.61
		c2.38-1.4,4.91-2.24,7.57-3.23c9.68-3.51,24.41-2.81,32.4,3.23c3.37,2.52,8.84,8,10.66,11.92c5.05,10.38,4.77,27.63,1.12,40.12
		c-0.42,1.68-1.12,4.21-2.1,6.17c-0.7,1.4-2.81,4.21-2.52,5.47c0.28,1.26,4.77,4.77,5.75,5.75c1.82,1.68,5.05,3.93,5.33,6.03
		c0.28,2.24-0.98,5.33-1.68,7.57C95.95,272.74,93.84,279.47,91.32,286.07"/>
	<path id="XMLID_79_" class="st7" d="M57.23,235.29c0.28-0.42,1.82-0.98,3.93,0.14c0,0-2.52,0.42-2.38,4.63l-1.12-0.28
		C57.79,239.92,56.67,235.99,57.23,235.29"/>
	<path id="XMLID_80_" class="st11" d="M75.75,271.62c0,0.7-0.56,1.12-1.12,1.12c-0.7,0-1.12-0.56-1.12-1.12
		c0-0.56,0.56-1.12,1.12-1.12C75.19,270.5,75.75,270.92,75.75,271.62"/>
	<path id="XMLID_81_" class="st11" d="M76.87,276.95c0,0.7-0.56,1.12-1.12,1.12c-0.7,0-1.12-0.56-1.12-1.12s0.56-1.12,1.12-1.12
		C76.31,275.83,76.87,276.39,76.87,276.95"/>
	<path id="XMLID_91_" d="M506.25,286.91c3.79-2.67,5.75-6.45,5.75-11.36c0-3.65-1.26-6.59-3.65-8.98
		c-2.52-2.38-6.31-4.21-11.64-5.61c-3.37-0.84-6.17-1.82-8-2.81c-1.96-0.98-2.81-2.67-2.81-4.91c0-1.68,0.7-2.95,1.96-3.93
		s3.09-1.4,5.33-1.4c2.95,0,5.61,1.12,8.14,3.37c2.52,2.24,4.35,4.91,5.33,8h3.09l-0.7-15.15h-3.37l-0.98,2.67
		c-1.54-0.7-3.51-1.26-5.75-1.82c-2.24-0.56-4.77-0.84-7.43-0.84c-5.75,0-10.24,1.26-13.75,3.93c-3.51,2.52-5.33,5.89-5.33,10.1
		c0,2.24,0.42,4.21,1.26,5.89c0.84,1.68,1.82,3.09,3.23,4.21c1.54,1.26,3.09,2.24,4.49,2.81c1.4,0.56,3.23,1.26,5.19,1.82
		c1.96,0.56,3.65,1.12,5.05,1.54c1.4,0.42,2.67,0.98,3.79,1.54c0.98,0.56,1.82,1.26,2.38,1.96c0.56,0.7,0.84,1.68,0.84,2.95
		c0,2.24-0.7,3.79-1.96,4.91c-1.26,1.12-3.37,1.54-6.03,1.54c-2.1,0-3.93-0.42-5.75-1.4c-1.82-0.98-3.37-2.1-4.77-3.37
		c-1.4-1.4-2.52-2.81-3.51-4.49c-0.98-1.68-1.82-3.23-2.24-4.49h-3.23l0.56,16.55h3.51l1.4-3.09c1.54,0.98,3.65,1.82,6.31,2.67
		c2.81,0.84,5.61,1.26,8.42,1.26C497.55,290.98,502.46,289.57,506.25,286.91z M466.69,286.21c-0.84-0.14-1.68-0.28-2.38-0.42
		c-0.7-0.14-1.26-0.42-1.82-0.56c-0.84-0.42-1.54-0.84-1.82-1.54c-0.28-0.7-0.42-1.54-0.42-2.67v-21.74c0-4.49-1.26-8.14-3.65-10.94
		s-6.03-4.07-10.94-4.07c-1.96,0-3.93,0.28-5.75,0.7c-1.82,0.56-3.23,1.12-4.35,1.82c-0.98,0.7-2.1,1.54-3.23,2.52
		c-1.12,0.98-2.24,1.96-3.09,2.67h-0.14v-6.45l-0.7-0.7l-21.18,1.12v3.23c0.98,0.14,1.82,0.28,2.67,0.42
		c0.84,0.28,1.54,0.56,1.96,0.84c0.7,0.56,1.4,1.26,1.82,2.24c0.42,0.84,0.7,1.82,0.7,2.67v25.81c0,1.12-0.14,1.96-0.56,2.67
		c-0.42,0.7-0.98,1.12-1.96,1.54c-0.56,0.14-1.12,0.28-1.96,0.42c-0.7,0.14-1.54,0.14-2.24,0.28v3.23h27.07v-3.23
		c-0.7-0.14-1.4-0.28-2.1-0.42c-0.7-0.14-1.26-0.42-1.82-0.7c-0.7-0.42-1.12-0.84-1.4-1.54c-0.28-0.7-0.42-1.54-0.42-2.67v-23.85
		c0.42-0.42,0.84-0.98,1.26-1.68c0.56-0.56,1.26-1.26,2.1-1.82c0.98-0.7,1.96-1.26,2.95-1.54c0.98-0.42,2.1-0.56,3.37-0.56
		c2.1,0,3.79,0.7,4.91,2.24c1.12,1.54,1.68,3.79,1.68,6.87v20.76c0,1.26-0.14,2.1-0.42,2.81c-0.28,0.56-0.7,1.12-1.4,1.4
		c-0.42,0.14-0.98,0.42-1.82,0.42c-0.84,0.14-1.54,0.14-2.1,0.28v3.23h26.79v-3.09H466.69z M394.73,222.94
		c-1.68-1.54-3.79-2.38-6.17-2.38c-2.38,0-4.49,0.84-6.17,2.38c-1.68,1.54-2.67,3.51-2.67,5.75c0,2.24,0.84,4.21,2.67,5.75
		c1.68,1.54,3.79,2.38,6.17,2.38c2.38,0,4.49-0.84,6.17-2.38c1.68-1.54,2.67-3.51,2.67-5.75
		C397.4,226.59,396.55,224.63,394.73,222.94z M403.85,286.21c-0.7-0.14-1.54-0.28-2.24-0.42c-0.7-0.14-1.4-0.42-1.96-0.7
		c-0.84-0.42-1.4-0.84-1.96-1.68c-0.42-0.7-0.7-1.54-0.7-2.67v-35.35l-0.7-0.7l-21.74,1.12v3.23c0.84,0.14,1.82,0.28,2.95,0.56
		c1.12,0.28,1.82,0.7,2.38,0.98c0.7,0.42,1.26,1.12,1.82,1.82c0.42,0.84,0.7,1.68,0.7,2.67v25.81c0,1.12-0.14,1.96-0.56,2.67
		c-0.42,0.7-1.12,1.12-1.96,1.54c-0.56,0.14-1.12,0.42-1.96,0.42c-0.7,0.14-1.54,0.14-2.24,0.28v3.23h28.05v-2.81H403.85z
		 M375.23,286.21c-1.4-0.14-2.67-0.42-4.07-0.84c-1.4-0.42-2.52-1.4-3.37-2.81c-2.67-4.07-5.33-7.86-7.72-11.36
		c-2.52-3.65-5.19-7.43-8-11.64c1.54-1.26,2.81-2.38,3.93-3.23c1.12-0.84,2.24-1.68,3.51-2.52c1.82-1.26,3.51-2.24,5.05-2.95
		s3.79-1.54,6.73-2.38v-3.09h-22.58v3.23c1.82,0.28,3.23,0.56,4.21,0.98c0.98,0.42,1.4,0.84,1.4,1.4c0,0.14,0,0.42-0.14,0.98
		s-0.7,1.26-1.68,2.24c-1.68,1.68-3.79,3.79-6.59,6.45c-2.81,2.52-5.19,4.91-7.43,6.73v-45.87l-0.7-0.7l-22.16,1.12v3.23
		c0.98,0,1.96,0.14,3.09,0.42c1.12,0.28,1.96,0.56,2.52,0.84c0.84,0.56,1.4,1.26,1.82,2.38s0.7,2.1,0.7,3.09v49.52
		c0,1.12-0.14,1.96-0.56,2.67c-0.28,0.7-0.98,1.12-1.96,1.54c-0.56,0.14-1.26,0.28-1.96,0.42c-0.7,0.14-1.54,0.14-2.24,0.28v3.23
		h27.63v-3.23c-0.7,0-1.4-0.14-2.1-0.42c-0.7-0.28-1.4-0.42-1.82-0.56c-0.84-0.28-1.54-0.84-1.82-1.54
		c-0.28-0.7-0.42-1.54-0.42-2.67v-9.82l2.67-2.24c1.96,2.67,3.93,5.61,6.03,8.7c2.1,3.09,4.49,7.01,7.01,11.5h21.04V286.21z
		 M314.07,286.21c-0.84-0.14-1.68-0.28-2.38-0.42c-0.7-0.14-1.26-0.42-1.82-0.56c-0.84-0.42-1.54-0.84-1.82-1.54
		c-0.28-0.7-0.42-1.54-0.42-2.67v-21.74c0-4.49-1.26-8.14-3.65-10.94s-6.03-4.07-10.94-4.07c-1.96,0-3.93,0.28-5.75,0.7
		c-1.82,0.56-3.23,1.12-4.35,1.82c-0.98,0.7-2.1,1.54-3.23,2.52c-1.12,0.98-2.24,1.96-3.09,2.67h-0.14v-6.45l-0.7-0.7l-21.18,1.12
		v3.23c0.98,0.14,1.82,0.28,2.67,0.42c0.84,0.28,1.54,0.56,1.96,0.84c0.7,0.56,1.4,1.26,1.82,2.24c0.42,0.84,0.7,1.82,0.7,2.67
		v25.81c0,1.12-0.14,1.96-0.56,2.67c-0.42,0.7-0.98,1.12-1.96,1.54c-0.56,0.14-1.12,0.28-1.96,0.42c-0.7,0.14-1.54,0.14-2.24,0.28
		v3.23h27.07v-3.23c-0.7-0.14-1.4-0.28-2.1-0.42c-0.7-0.14-1.26-0.42-1.82-0.7c-0.7-0.42-1.12-0.84-1.4-1.54
		c-0.28-0.7-0.42-1.54-0.42-2.67v-23.85c0.42-0.42,0.84-0.98,1.26-1.68c0.56-0.56,1.26-1.26,2.1-1.82c0.98-0.7,1.96-1.26,2.95-1.54
		c0.98-0.42,2.1-0.56,3.37-0.56c2.1,0,3.79,0.7,4.91,2.24c1.12,1.54,1.68,3.79,1.68,6.87v20.76c0,1.26-0.14,2.1-0.42,2.81
		c-0.28,0.56-0.7,1.12-1.4,1.4c-0.42,0.14-0.98,0.42-1.82,0.42c-0.84,0.14-1.54,0.14-2.1,0.28v3.23h26.79v-3.09H314.07z
		 M219.81,262.08c0.14-5.05,0.84-8.7,2.24-10.94c1.4-2.24,3.23-3.51,5.47-3.51c1.4,0,2.38,0.42,3.37,1.12
		c0.84,0.7,1.54,1.82,2.1,3.23c0.42,1.12,0.7,2.67,0.98,4.63c0.14,1.82,0.28,3.65,0.28,5.47H219.81z M247.72,276.39
		c-1.54,2.38-3.51,4.21-5.75,5.75c-2.24,1.54-4.77,2.24-7.57,2.24c-5.05,0-8.84-1.54-11.22-4.77c-2.38-3.23-3.51-7.86-3.51-13.89
		h30.02v-2.81c0-2.52-0.42-4.91-1.12-7.29c-0.7-2.24-1.96-4.35-3.65-6.03c-1.68-1.82-3.93-3.23-6.59-4.21s-6.03-1.54-10.24-1.54
		c-3.79,0-7.29,0.7-10.24,1.96c-3.09,1.26-5.61,2.95-7.57,5.05c-2.1,2.1-3.65,4.63-4.77,7.43c-1.12,2.81-1.68,5.61-1.68,8.7
		c0,3.37,0.56,6.45,1.54,9.26c0.98,2.81,2.52,5.33,4.63,7.43c2.1,2.1,4.77,3.79,7.86,5.05c3.23,1.26,7.01,1.82,11.36,1.82
		c2.67,0,4.91-0.28,7.01-0.84c1.96-0.56,4.07-1.4,6.03-2.52c1.82-1.12,3.51-2.38,5.05-3.79c1.4-1.54,2.67-3.09,3.79-4.77
		L247.72,276.39z M198.35,226.31h-33.67v3.51c0.84,0.14,1.82,0.28,3.09,0.56c1.26,0.28,2.38,0.56,3.23,0.98
		c1.26,0.56,2.1,1.12,2.38,1.82s0.56,1.54,0.56,2.67v35.63c0,5.19-0.98,8.98-3.09,11.5c-2.1,2.52-4.77,3.79-8.42,3.79
		c-0.98,0-1.82-0.14-2.67-0.56c-0.84-0.42-1.4-0.98-1.68-1.54v-0.56c1.68-1.4,3.23-2.81,4.49-4.49c1.26-1.68,1.96-3.37,1.96-5.33
		c0-2.24-0.7-4.07-2.24-5.61c-1.54-1.54-3.65-2.24-6.17-2.24c-2.67,0-4.91,0.84-6.45,2.67c-1.54,1.82-2.38,4.07-2.38,6.87
		c0,4.63,1.68,8.28,5.05,10.94c3.37,2.67,7.86,4.07,13.47,4.07c3.23,0,6.17-0.42,8.98-1.4c2.81-0.84,5.33-2.24,7.72-4.07
		c2.24-1.82,4.07-4.07,5.33-6.73c1.26-2.67,1.96-5.61,1.96-8.84v-34.79c0-1.12,0.14-1.96,0.56-2.81c0.28-0.84,1.12-1.4,2.38-1.68
		c0.98-0.28,1.96-0.42,2.81-0.56c0.84-0.14,1.82-0.28,3.09-0.42v-3.37H198.35z"/>
</g>
</svg>
