<?xml version="1.0" encoding="utf-8"?>
<!-- Generator: Adobe Illustrator 26.5.0, SVG Export Plug-In . SVG Version: 6.00 Build 0)  -->
<svg version="1.1" id="Layer_1" xmlns="http://www.w3.org/2000/svg" xmlns:xlink="http://www.w3.org/1999/xlink" x="0px" y="0px"
	 viewBox="0 0 512 512" style="enable-background:new 0 0 512 512;" xml:space="preserve">
<style type="text/css">
	.st0{fill:#019B8F;}
	.st1{fill:#3EBEB0;}
	.st2{fill:#353535;}
	.st3{fill:#F04E98;}
</style>
<g id="XMLID_1_">
	<polygon id="XMLID_3_" points="204.1,256.7 210.69,248.28 227.38,230.47 241.13,230.47 218.83,254.32 242.67,286.02 228.65,286.02 
		210.97,261.61 204.52,266.94 204.52,286.02 192.74,286.02 192.74,207.89 204.52,207.89 204.52,245.9 203.82,256.7 	"/>
	<path id="XMLID_6_" d="M250.81,215.74c0-2.1,0.7-3.65,1.68-4.91c1.12-1.26,2.81-1.68,4.91-1.68c2.1,0,3.65,0.7,4.91,1.68
		c1.26,1.12,1.68,2.81,1.68,4.91c0,1.96-0.7,3.65-1.68,4.77c-1.12,1.12-2.81,1.68-4.91,1.68c-2.1,0-3.79-0.7-4.91-1.68
		C251.37,219.39,250.81,217.71,250.81,215.74z M263.15,286.02h-11.78v-55.41h11.78V286.02z"/>
	<path id="XMLID_9_" d="M308.32,229.49c6.87,0,12.48,2.52,16.27,7.43c3.79,4.91,5.75,11.92,5.75,21.18c0,8.98-1.96,16.27-5.75,21.18
		c-3.79,4.91-9.4,7.72-16.27,7.72c-7.01,0-12.48-2.52-16.27-7.43h-0.84l-2.1,6.59h-8.84v-78.13h11.78v18.66c0,1.26,0,3.37-0.28,6.17
		c-0.28,2.81-0.28,4.49-0.28,5.19h0.42C295.56,232.29,301.03,229.49,308.32,229.49z M305.38,239.03c-4.77,0-8.14,1.54-10.24,4.35
		c-2.1,2.81-3.23,7.43-3.23,14.17v0.84c0,6.87,1.12,11.5,3.23,14.73c2.1,3.23,5.61,4.49,10.52,4.49c4.35,0,7.29-1.68,9.4-4.91
		c2.1-3.23,3.23-8.14,3.23-14.31C318.14,245.34,313.93,239.03,305.38,239.03z"/>
	<path id="XMLID_12_" d="M378.74,286.02l-2.38-7.72h-0.42c-2.52,3.37-5.33,5.75-8.14,6.87s-6.17,1.96-10.52,1.96
		c-5.33,0-9.68-1.54-12.91-4.49c-3.23-2.95-4.49-7.01-4.49-12.48c0-5.75,2.1-10.1,6.45-12.91c4.35-2.95,10.66-4.49,19.5-4.77
		l9.68-0.28v-2.95c0-3.65-0.84-6.17-2.52-7.86c-1.68-1.68-4.35-2.52-7.72-2.52c-2.81,0-5.61,0.42-8.14,1.26
		c-2.52,0.84-5.19,1.96-7.43,2.95l-3.79-8.42c2.95-1.54,6.17-2.81,9.82-3.65c3.65-0.84,6.87-1.26,10.1-1.26
		c7.01,0,12.48,1.54,15.99,4.77c3.65,3.23,5.33,7.86,5.33,14.59v36.89L378.74,286.02L378.74,286.02z M361.21,277.88
		c4.35,0,7.72-1.26,10.24-3.65s3.79-5.75,3.79-10.1v-4.77l-7.01,0.28c-5.61,0.28-9.68,1.12-12.2,2.81
		c-2.52,1.68-3.79,4.35-3.79,7.72c0,2.52,0.7,4.49,2.1,5.75C355.88,277.18,358.26,277.88,361.21,277.88z"/>
	<path id="XMLID_13_" d="M452.52,286.02h-11.78v-34.23c0-4.35-0.84-7.43-2.52-9.68c-1.68-2.1-4.49-3.23-8.14-3.23
		c-4.91,0-8.56,1.54-10.94,4.49c-2.38,2.95-3.37,7.86-3.37,14.73v27.77h-11.78v-55.41h9.26l1.68,7.29h0.7
		c1.68-2.52,4.07-4.77,7.01-6.17c2.95-1.54,6.45-2.1,10.24-2.1c13.33,0,19.92,6.87,19.92,20.34v36.19H452.52z"/>
	<path id="XMLID_16_" d="M503.58,286.02l-2.38-7.72h-0.42c-2.52,3.37-5.33,5.75-8.14,6.87s-6.17,1.96-10.52,1.96
		c-5.33,0-9.68-1.54-12.91-4.49c-3.23-2.95-4.49-7.01-4.49-12.48c0-5.75,2.1-10.1,6.45-12.91c4.35-2.95,10.66-4.49,19.5-4.77
		l9.68-0.28v-2.95c0-3.65-0.84-6.17-2.52-7.86c-1.68-1.68-4.35-2.52-7.72-2.52c-2.81,0-5.61,0.42-8.14,1.26
		c-2.52,0.84-5.19,1.96-7.43,2.95l-3.79-8.42c2.95-1.54,6.17-2.81,9.82-3.65c3.65-0.84,6.87-1.26,10.1-1.26
		c7.01,0,12.48,1.54,15.99,4.77c3.65,3.23,5.33,7.86,5.33,14.59v36.89L503.58,286.02L503.58,286.02z M486.05,277.88
		c4.35,0,7.72-1.26,10.24-3.65c2.52-2.38,3.79-5.75,3.79-10.1v-4.77l-7.01,0.28c-5.61,0.28-9.68,1.12-12.2,2.81
		c-2.52,1.68-3.79,4.35-3.79,7.72c0,2.52,0.7,4.49,2.1,5.75C480.72,277.18,483.1,277.88,486.05,277.88z"/>
	<path id="XMLID_17_" class="st0" d="M63.4,248.57L0,324.59v17.11h7.86l70.7-84.59C73.64,253.9,68.73,251.09,63.4,248.57z"/>
	<path id="XMLID_18_" class="st1" d="M78.55,257.12l-70.7,84.59h120.5C128.49,307.2,108.99,276.62,78.55,257.12z"/>
	<path id="XMLID_19_" class="st2" d="M0,324.45l63.4-76.03c-18.66-8.84-40.26-13.89-63.4-13.89V324.45z"/>
	<path id="XMLID_20_" class="st3" d="M0,170.29v64.25c23.15,0,44.61,5.19,63.4,13.89l65.09-78.13H0z"/>
</g>
</svg>
