<?xml version="1.0" encoding="UTF-8"?>
<svg id="Layer_1" data-name="Layer 1" xmlns="http://www.w3.org/2000/svg" viewBox="0 0 70.58 70.51">
  <defs>
    <style>
      .cls-1 {
        stroke: #000;
        stroke-miterlimit: 10;
        stroke-width: .5px;
      }
    </style>
  </defs>
  <path class="cls-1" d="m35.25.25C15.92.27.26,15.96.29,35.29c0,5.9,1.5,11.7,4.35,16.86L.33,67.71c-.3,1.06.31,2.16,1.37,2.47.36.1.74.1,1.1,0l15.57-4.31c16.91,9.36,38.21,3.24,47.57-13.67,9.36-16.91,3.24-38.21-13.67-47.57C47.06,1.75,41.2.24,35.25.25Zm0,1c18.78,0,34.01,15.21,34.02,33.98,0,18.78-15.21,34.01-33.98,34.02-5.9,0-11.7-1.53-16.83-4.45-.24-.14-.52-.17-.78-.09l-16.42,4.54,4.55-16.42c.06-.26.03-.54-.1-.78C-3.58,35.72,2.13,14.97,18.46,5.69c5.12-2.91,10.9-4.44,16.79-4.44Zm0,6c-15.46.05-27.96,12.62-27.91,28.09.02,5.62,1.73,11.11,4.91,15.75l-2.58,9.16c-.08.26.07.53.33.61,0,0,0,0,0,0h0c.08.03.18.03.26,0l9.14-2.53c12.78,8.7,30.2,5.4,38.9-7.39,7.53-11.05,6.19-25.89-3.2-35.41-.19-.2-.51-.2-.71,0,0,0,0,0,0,0h0c-.2.19-.2.51,0,.71,0,0,0,0,0,0h0c10.44,10.64,10.28,27.74-.36,38.18-9.23,9.06-23.6,10.3-34.25,2.95-.12-.1-.27-.14-.42-.12l-8.49,2.35,2.38-8.45c.04-.14,0-.3-.08-.42-8.56-12.21-5.6-29.05,6.61-37.61,6.64-4.66,15.03-6.08,22.84-3.87.27.07.55-.09.63-.36.07-.27-.08-.55-.35-.64h0c-2.49-.68-5.07-1.02-7.65-1Zm10.5,2.08c-.27-.07-.54.08-.61.35,0,0,0,.01,0,.02-.07.27.09.55.36.62h.07c1.01.42,1.99.9,2.94,1.44.21.15.49.1.64-.11,0,0,0,0,0-.01h0c.15-.23.08-.54-.15-.69h0c-.97-.56-1.97-1.06-3-1.5-.06-.06-.12-.1-.2-.12h-.05Zm5,2.7c-.28,0-.5.22-.5.5-.01.17.07.33.22.42.68.46,1.33,1,2,1.47.2.18.5.16.68-.04,0,0,0,0,.01-.01h0c.17-.21.14-.53-.07-.7-.67-.54-1.34-1.05-2-1.53-.1-.07-.22-.1-.34-.1h0Z"/>
  <path class="cls-1" d="m38.75,49.89h-12.62v-29.28h10.6c4.74,0,8.58,3.85,8.57,8.59,0,1.82-.58,3.58-1.65,5.05,3.89,2.7,4.86,8.05,2.16,11.94-1.61,2.31-4.24,3.69-7.06,3.69h0Zm-11.62-1h11.62c4.19,0,7.58-3.38,7.59-7.57,0-2.67-1.39-5.14-3.68-6.51l-.5-.3.38-.45c2.69-3.21,2.27-7.99-.94-10.68-1.37-1.14-3.09-1.77-4.87-1.77h-9.6v27.28Zm11.62-3h-8.58v-9.12h8.58c2.51,0,4.54,2.04,4.54,4.54,0,2.51-2.03,4.54-4.54,4.54h0v.04Zm-7.58-1h7.58c1.96,0,3.54-1.58,3.54-3.54s-1.58-3.54-3.54-3.54h-7.58v7.08Zm5.56-11.12h-6.56v-9.12h6.56c2.51,0,4.54,2.03,4.54,4.54s-2.03,4.54-4.54,4.54v.04Zm-5.56-1h5.56c1.96,0,3.54-1.58,3.54-3.54s-1.58-3.54-3.54-3.54h-5.56v7.08Z"/>
</svg>